# xmcd
#
# Track frame offsets: 
#        150
#        14951
#        27513
#        39957
#        53735
#        65470
#        82742
#        96093
#        109299
#        121126
#        133729
#        148591
#        160038
#        175388
#        192540
#        204937
#        220528
#
# Disc length: 3136 seconds
#
# Revision: 0
# Processed by: cddbd v1.5.1PL2 Copyright (c) Steve Scherf et al.
# Submitted via: ExactAudioCopy v0.95b4
#
DISCID=ec0c3e11
DTITLE=OS NONATOS - TUDO DE BOM
DYEAR=2006
DGENRE=VIOLEIROS
TTITLE0=PLANETA EMOÇAO
TTITLE1=DIFICIL DEMAIS
TTITLE2=TUDO DE BOM
TTITLE3=PATRIMONIO PUBLICO
TTITLE4=SONHO DE CONSUMO
TTITLE5=BRUXO FEITICEIRO
TTITLE6=TESOURO PERDIDO
TTITLE7=PRIMEIRA E ULTIMA
TTITLE8=MUDAR PRA QUE
TTITLE9=QUE AMOR E ESSE
TTITLE10=A TRANSPOSIÇAO
TTITLE11=PARQUE MOTEL
TTITLE12=JARDIM DE FLORES
TTITLE13=MEU BEM MEU MAL
TTITLE14=COISA DE CABEÇA
TTITLE15=AMOR NÃO TEM IDADE
TTITLE16=VOCE E QUEM SABE
EXTD=MUITO BOM
EXTT0=
EXTT1=
EXTT2=
EXTT3=
EXTT4=
EXTT5=
EXTT6=
EXTT7=
EXTT8=
EXTT9=
EXTT10=
EXTT11=
EXTT12=
EXTT13=
EXTT14=
EXTT15=
EXTT16=
PLAYORDER=
